<?xml version="1.0" encoding="UTF-8"?>
<svg width="31px" height="24px" viewBox="0 0 31 24" version="1.1" xmlns="http://www.w3.org/2000/svg" xmlns:xlink="http://www.w3.org/1999/xlink">
    <!-- Generator: Sketch 55.2 (78181) - https://sketchapp.com -->
    <title>Group 16</title>
    <desc>Created with Sketch.</desc>
    <g id="Widescreen---2nd-round" stroke="none" stroke-width="1" fill="none" fill-rule="evenodd" opacity="0.989350818">
        <g id="Homepage-Copy" transform="translate(-761.000000, -392.000000)" fill="#FFFFFF">
            <g id="Group-16" transform="translate(761.000000, 393.000000)">
                <g id="Group-10" transform="translate(17.000000, 0.000000)" fill-rule="nonzero">
                    <path d="M3.81370302,9.19047619 L0,9.19047619 C-0.414213562,9.19047619 -0.75,8.85468975 -0.75,8.44047619 L-0.75,4.58333333 C-0.75,4.16911977 -0.414213562,3.83333333 0,3.83333333 L3.81370302,3.83333333 L3.81370302,0 C3.81370302,-0.414213562 4.14948946,-0.75 4.56370302,-0.75 L8.41246563,-0.75 C8.82667919,-0.75 9.16246563,-0.414213562 9.16246563,0 L9.16246563,3.83333333 L13,3.83333333 C13.4142136,3.83333333 13.75,4.16911977 13.75,4.58333333 L13.75,8.44047619 C13.75,8.85468975 13.4142136,9.19047619 13,9.19047619 L9.16246563,9.19047619 L9.16246563,13 C9.16246563,13.4142136 8.82667919,13.75 8.41246563,13.75 L4.56370302,13.75 C4.14948946,13.75 3.81370302,13.4142136 3.81370302,13 L3.81370302,9.19047619 Z M0.75,5.33333333 L0.75,7.69047619 L4.56370302,7.69047619 C4.97791659,7.69047619 5.31370302,8.02626263 5.31370302,8.44047619 L5.31370302,12.25 L7.66246563,12.25 L7.66246563,8.44047619 C7.66246563,8.02626263 7.99825207,7.69047619 8.41246563,7.69047619 L12.25,7.69047619 L12.25,5.33333333 L8.41246563,5.33333333 C7.99825207,5.33333333 7.66246563,4.9975469 7.66246563,4.58333333 L7.66246563,0.75 L5.31370302,0.75 L5.31370302,4.58333333 C5.31370302,4.9975469 4.97791659,5.33333333 4.56370302,5.33333333 L0.75,5.33333333 Z" id="+"></path>
                </g>
                <g id="Group-14" transform="translate(0.000000, 5.000000)">
                    <path d="M10.5029227,1.65045713 C11.9672895,2.95911512 13,6.04938983 13,9.13261141 C13,12.1740411 11.9950957,15.0735097 10.5622301,16.3370645 C13.9545383,15.6183109 16.5,12.6064177 16.5,9 C16.5,8.80161731 16.5152866,8.48766167 16.5,8.29156986 C17.5,8.09718995 18,8.33333333 18,9 C18,13.9705627 13.9705627,18 9,18 C4.02943725,18 0,13.9705627 0,9 C0,4.02943725 4.02943725,0 9,0 C10.1240477,0 11.9078856,0.37664087 12.2479605,0.604125329 C12.5880355,0.831609788 12.7458409,1.21718814 12.5057858,1.65698147 C12.3457491,1.95017702 12.0793113,2.06550941 11.7064724,2.00297865 C11.3163111,1.85194945 10.9140824,1.73403587 10.5029227,1.65045713 Z M7.49683982,1.65066937 C4.07505394,2.34679551 1.5,5.37267972 1.5,9 C1.5,12.6064177 4.04546171,15.6183109 7.43776989,16.3370645 C6.00490426,15.0735097 5,12.1740411 5,9.13261141 C5,6.0495565 6.03259888,2.95944922 7.49683982,1.65066937 Z M9,15.5296751 C9.28657583,15.5296751 9.84801492,15.0365023 10.3725415,13.9790375 C11.0142173,12.6853957 11.4,10.9168974 11.4,9.13261141 C11.4,5.64923669 9.89171758,2.47032492 9,2.47032492 C8.10828242,2.47032492 6.6,5.64923669 6.6,9.13261141 C6.6,10.9168974 6.98578267,12.6853957 7.62745849,13.9790375 C8.15198508,15.0365023 8.71342417,15.5296751 9,15.5296751 Z" id="Combined-Shape"></path>
                    <path d="M17,8 L2,8 C1.44771525,8 1,8.44771525 1,9 C1,9.55228475 1.44771525,10 2,10 L17,10 C17.5522847,10 18,9.55228475 18,9 C18,8.44771525 17.5522847,8 17,8 Z" id="Line-8" fill-rule="nonzero"></path>
                </g>
            </g>
        </g>
    </g>
</svg>