<?xml version="1.0" encoding="UTF-8"?>
<svg width="25px" height="26px" viewBox="0 0 25 26" version="1.1" xmlns="http://www.w3.org/2000/svg" xmlns:xlink="http://www.w3.org/1999/xlink">
    <!-- Generator: Sketch 55.2 (78181) - https://sketchapp.com -->
    <title>Group 2</title>
    <desc>Created with Sketch.</desc>
    <g id="Widescreen---2nd-round" stroke="none" stroke-width="1" fill="none" fill-rule="evenodd" opacity="0.216959635">
        <g id="Homepage-Copy" transform="translate(-2349.000000, -391.000000)" stroke="#FFFFFF" stroke-width="2">
            <g id="Group-2" transform="translate(2349.000000, 391.000000)">
                <g id="Group-15">
                    <path d="M15.1330049,16.7142857 L23.6453202,24.5488475" id="Line-2" stroke-linecap="round" stroke-linejoin="round"></path>
                    <ellipse id="Oval" cx="9.45812808" cy="9.28571429" rx="8.45812808" ry="8.28571429"></ellipse>
                </g>
                <path d="M9.3990149,9.51785738 C7.86458824,9.51785738 6.62068966,8.29663403 6.62068966,6.79017869 C6.62068966,5.28372335 7.86458824,4.0625 9.3990149,4.0625 C10.9334416,4.0625 12.1773401,5.28372335 12.1773401,6.79017869 C12.1773401,8.29663403 10.9334416,9.51785738 9.3990149,9.51785738 Z" id="Oval" fill-rule="nonzero"></path>
                <path d="M4.13793103,15.9252101 L4.13793103,14.9732143 C4.13793103,13.4347068 5.24949993,12.1875 6.62068966,12.1875 L11.5862069,12.1875 C12.9573966,12.1875 14.0689655,13.4347068 14.0689655,14.9732143 L14.0689655,16.8303571" id="Shape"></path>
            </g>
        </g>
    </g>
</svg>