<?xml version="1.0" encoding="UTF-8"?>
<svg width="31px" height="23px" viewBox="0 0 31 23" version="1.1" xmlns="http://www.w3.org/2000/svg" xmlns:xlink="http://www.w3.org/1999/xlink">
    <!-- Generator: Sketch 55.2 (78181) - https://sketchapp.com -->
    <title>Group 14</title>
    <desc>Created with Sketch.</desc>
    <g id="Widescreen---2nd-round" stroke="none" stroke-width="1" fill="none" fill-rule="evenodd">
        <g id="Homepage-Copy" transform="translate(-1135.000000, -395.000000)">
            <g id="Group-14" transform="translate(1135.000000, 395.000000)">
                <g id="Group-15" transform="translate(15.000000, 0.000000)" stroke="#FFFFFF" stroke-width="2">
                    <path d="M10,10.5311661 L15,15.5934984" id="Line-2" stroke-linecap="round" stroke-linejoin="round"></path>
                    <circle id="Oval" cx="6" cy="6" r="5"></circle>
                    <path d="M5,7 C4.79233251,6.55928226 4.4373928,6.20397877 4,6" id="Shape" stroke-linecap="round" stroke-linejoin="round"></path>
                </g>
                <path d="M10.5029227,6.65045713 C11.9672895,7.95911512 13,11.0493898 13,14.1326114 C13,17.1740411 11.9950957,20.0735097 10.5622301,21.3370645 C13.9545383,20.6183109 16.5,17.6064177 16.5,14 C16.5,13.8016173 16.5152866,13.4876617 16.5,13.2915699 C17.5,13.09719 18,13.3333333 18,14 C18,18.9705627 13.9705627,23 9,23 C4.02943725,23 0,18.9705627 0,14 C0,9.02943725 4.02943725,5 9,5 C10.1240477,5 11.9078856,5.37664087 12.2479605,5.60412533 C12.5880355,5.83160979 12.7458409,6.21718814 12.5057858,6.65698147 C12.3457491,6.95017702 12.0793113,7.06550941 11.7064724,7.00297865 C11.3163111,6.85194945 10.9140824,6.73403587 10.5029227,6.65045713 Z M7.49683982,6.65066937 C4.07505394,7.34679551 1.5,10.3726797 1.5,14 C1.5,17.6064177 4.04546171,20.6183109 7.43776989,21.3370645 C6.00490426,20.0735097 5,17.1740411 5,14.1326114 C5,11.0495565 6.03259888,7.95944922 7.49683982,6.65066937 Z M9,20.5296751 C9.28657583,20.5296751 9.84801492,20.0365023 10.3725415,18.9790375 C11.0142173,17.6853957 11.4,15.9168974 11.4,14.1326114 C11.4,10.6492367 9.89171758,7.47032492 9,7.47032492 C8.10828242,7.47032492 6.6,10.6492367 6.6,14.1326114 C6.6,15.9168974 6.98578267,17.6853957 7.62745849,18.9790375 C8.15198508,20.0365023 8.71342417,20.5296751 9,20.5296751 Z" id="Combined-Shape" fill="#FFFFFF"></path>
                <path d="M17,13 L2,13 C1.44771525,13 1,13.4477153 1,14 C1,14.5522847 1.44771525,15 2,15 L17,15 C17.5522847,15 18,14.5522847 18,14 C18,13.4477153 17.5522847,13 17,13 Z" id="Line-8" fill="#FFFFFF" fill-rule="nonzero"></path>
            </g>
        </g>
    </g>
</svg>