<?xml version="1.0" encoding="UTF-8"?>
<svg width="22px" height="18px" viewBox="0 0 22 18" version="1.1" xmlns="http://www.w3.org/2000/svg" xmlns:xlink="http://www.w3.org/1999/xlink">
    <!-- Generator: Sketch 55.2 (78181) - https://sketchapp.com -->
    <title>Group 18</title>
    <desc>Created with Sketch.</desc>
    <g id="Widescreen---2nd-round" stroke="none" stroke-width="1" fill="none" fill-rule="evenodd">
        <g id="Homepage-Copy" transform="translate(-101.000000, -395.000000)" fill="#FFFFFF">
            <g id="Group-18" transform="translate(100.000000, 395.000000)">
                <path d="M2.3534985,7.23159702 C1.83687197,7.03636518 1.25979674,7.29690707 1.06456491,7.8135336 C0.869333077,8.33016014 1.12987496,8.90723536 1.6465015,9.1024672 L11.7893808,12.9354351 C12.0249866,13.0244699 12.2855131,13.0213192 12.5188968,12.9266125 L22.3760175,8.92661255 C22.8877715,8.7189438 23.1342813,8.13573645 22.9266125,7.62398247 C22.7189438,7.11222849 22.1357364,6.8657187 21.6239825,7.07338745 L12.1298915,10.9260707 L2.3534985,7.23159702 Z" id="Path" fill-rule="nonzero"></path>
                <path d="M21.3264971,4.31972524 L13.1509886,7.7421711 C12.5141268,8.08503129 11.8393303,8.08594055 11.1265989,7.74489889 C8.15327838,6.764826 5.3054924,5.6981608 2.58324097,4.54490328 C2.07469278,4.32947954 1.83708624,3.74257714 2.05252537,3.23403548 C2.17167604,2.95278165 2.41283455,2.74140605 2.70727825,2.6601441 L12.3460173,0 L21.2051707,2.43299344 C21.7377369,2.57925235 22.0509009,3.12954885 21.904642,3.66211506 C21.8232389,3.95852458 21.6100392,4.20102835 21.3264971,4.31972524 Z" id="Path"></path>
                <path d="M12.1116073,15.9265088 L2.35215988,12.2543863 C1.83525457,12.0598938 1.25855267,12.321261 1.06406014,12.8381663 C0.86956761,13.3550716 1.13093481,13.9317735 1.64784012,14.126266 L11.7728595,17.9359399 C12.0079266,18.024387 12.2676688,18.0211418 12.5004528,17.9268494 L22.3754334,13.9268494 C22.8873182,13.7195032 23.1341955,13.1364514 22.9268494,12.6245666 C22.7195032,12.1126818 22.1364514,11.8658045 21.6245666,12.0731506 L12.1116073,15.9265088 Z" id="Path" fill-rule="nonzero"></path>
            </g>
        </g>
    </g>
</svg>