<?xml version="1.0" encoding="UTF-8"?>
<svg width="30px" height="31px" viewBox="0 0 30 31" version="1.1" xmlns="http://www.w3.org/2000/svg" xmlns:xlink="http://www.w3.org/1999/xlink">
    <!-- Generator: Sketch 55.2 (78181) - https://sketchapp.com -->
    <title>Group 17</title>
    <desc>Created with Sketch.</desc>
    <g id="Widescreen---2nd-round" stroke="none" stroke-width="1" fill="none" fill-rule="evenodd">
        <g id="Homepage-Copy" transform="translate(-205.000000, -387.000000)" fill="#FFFFFF">
            <g id="Group-17" transform="translate(206.000000, 387.000000)">
                <path d="M17,9 L17,16 C17,16.5522847 16.5522847,17 16,17 C15.4477153,17 15,16.5522847 15,16 L15,6.375 L15,1 C15,0.44771525 15.4477153,1.01453063e-16 16,0 L27.7138333,0 C28.2661181,-1.6557653e-15 28.7138333,0.44771525 28.7138333,1 C28.7138333,1.20378587 28.6515727,1.40270762 28.5353885,1.57012896 L26.6793859,4.24462676 C26.425148,4.61098323 26.4442074,5.10140512 26.7261111,5.44692539 L28.2933425,7.36783032 C28.6424801,7.79575711 28.578609,8.42569231 28.1506822,8.77482998 C27.9721855,8.92046218 27.7488813,9 27.5185125,9 L17,9 Z" id="Combined-Shape"></path>
                <g id="Group-16" transform="translate(0.000000, 12.000000)">
                    <path d="M10.5029227,1.65045713 C11.9672895,2.95911512 13,6.04938983 13,9.13261141 C13,12.1740411 11.9950957,15.0735097 10.5622301,16.3370645 C13.9545383,15.6183109 16.5,12.6064177 16.5,9 C16.5,8.80161731 16.5152866,8.48766167 16.5,8.29156986 C17.5,8.09718995 18,8.33333333 18,9 C18,13.9705627 13.9705627,18 9,18 C4.02943725,18 0,13.9705627 0,9 C0,4.02943725 4.02943725,0 9,0 C10.1240477,0 11.9078856,0.37664087 12.2479605,0.604125329 C12.5880355,0.831609788 12.7458409,1.21718814 12.5057858,1.65698147 C12.3457491,1.95017702 12.0793113,2.06550941 11.7064724,2.00297865 C11.3163111,1.85194945 10.9140824,1.73403587 10.5029227,1.65045713 Z M7.49683982,1.65066937 C4.07505394,2.34679551 1.5,5.37267972 1.5,9 C1.5,12.6064177 4.04546171,15.6183109 7.43776989,16.3370645 C6.00490426,15.0735097 5,12.1740411 5,9.13261141 C5,6.0495565 6.03259888,2.95944922 7.49683982,1.65066937 Z M9,15.5296751 C9.28657583,15.5296751 9.84801492,15.0365023 10.3725415,13.9790375 C11.0142173,12.6853957 11.4,10.9168974 11.4,9.13261141 C11.4,5.64923669 9.89171758,2.47032492 9,2.47032492 C8.10828242,2.47032492 6.6,5.64923669 6.6,9.13261141 C6.6,10.9168974 6.98578267,12.6853957 7.62745849,13.9790375 C8.15198508,15.0365023 8.71342417,15.5296751 9,15.5296751 Z" id="Combined-Shape" stroke="#FFFFFF" stroke-width="0.5"></path>
                    <path d="M17,8 L2,8 C1.44771525,8 1,8.44771525 1,9 C1,9.55228475 1.44771525,10 2,10 L17,10 C17.5522847,10 18,9.55228475 18,9 C18,8.44771525 17.5522847,8 17,8 Z" id="Line-8" fill-rule="nonzero"></path>
                </g>
            </g>
        </g>
    </g>
</svg>